# xmcd
#
# Track frame offsets: 
#        150
#        18383
#        35275
#        52752
#        73118
#        96841
#        114094
#        129032
#        142265
#        165257
#        189677
#
# Disc length: 2831 seconds
#
# Revision: 3
# Processed by: cddbd v1.5.2PL0 Copyright (c) Steve Scherf et al.
# Submitted via: ExactAudioCopyFreeDBPlugin 1.0
#
DISCID=870b0d0b
DTITLE=Stretch - Unfinished Business
DYEAR=2011
DGENRE=
TTITLE0=Showbiz Blues
TTITLE1=Why did you do it?
TTITLE2=Flames
TTITLE3=I need your love so bad
TTITLE4=Hoochie Coochie Man
TTITLE5=Down in the Bottom
TTITLE6=I love the life i live
TTITLE7=Can't you feel it
TTITLE8=See that my grave ist kept clean
TTITLE9=I just wanna make love to you
TTITLE10=I've got my mojoworking
EXTD=
EXTT0=
EXTT1=
EXTT2=
EXTT3=
EXTT4=
EXTT5=
EXTT6=
EXTT7=
EXTT8=
EXTT9=
EXTT10=
PLAYORDER=
